<?xml version="1.0" standalone="no"?>
<!DOCTYPE svg PUBLIC "-//W3C//DTD SVG 20010904//EN"
 "http://www.w3.org/TR/2001/REC-SVG-20010904/DTD/svg10.dtd">
<svg version="1.0" xmlns="http://www.w3.org/2000/svg"
 width="344.000000pt" height="171.000000pt" viewBox="0 0 344.000000 171.000000"
 preserveAspectRatio="xMidYMid meet">

<g transform="translate(0.000000,171.000000) scale(0.100000,-0.100000)"
fill="#ff6f00" stroke="none">
<path d="M1510 1678 c-436 -23 -864 -140 -1137 -310 -106 -66 -234 -184 -285
-262 -273 -422 199 -884 1053 -1030 238 -41 358 -49 653 -43 270 5 388 17 601
62 615 129 1025 431 1025 754 0 235 -190 452 -535 611 -363 167 -860 246
-1375 218z m435 -98 c364 -23 664 -96 931 -225 366 -177 523 -415 417 -635
-131 -273 -540 -481 -1113 -564 -654 -96 -1392 27 -1795 297 -90 60 -206 183
-241 252 -61 125 -41 266 54 384 89 109 180 178 344 260 370 183 871 266 1403
231z"/>
<path d="M470 887 l0 -325 46 -7 c46 -7 68 2 70 28 0 7 2 78 2 160 l2 147 35
17 c56 27 60 16 63 -177 l4 -168 44 -7 c52 -7 64 -2 64 31 0 31 6 30 34 -3 19
-22 32 -27 73 -27 37 -1 57 4 72 18 21 19 22 19 42 -3 14 -15 30 -21 47 -19
l27 3 0 170 c0 237 -16 265 -150 267 -104 2 -145 -27 -115 -82 9 -17 13 -17
60 -3 46 13 53 13 75 -1 19 -12 25 -25 25 -51 0 -33 -1 -34 -56 -46 -31 -7
-72 -23 -91 -36 -19 -13 -36 -23 -38 -23 -3 0 -5 30 -5 68 0 86 -15 138 -45
158 -31 20 -94 20 -133 0 -18 -9 -33 -15 -33 -14 -1 2 -7 57 -13 123 l-11 120
-47 3 -48 3 0 -324z m520 -170 c0 -81 -58 -116 -88 -53 -17 33 -4 67 32 84 44
22 56 15 56 -31z"/>
<path d="M1717 1204 c-4 -4 -7 -151 -7 -326 0 -246 3 -320 13 -323 6 -2 28 -1
47 3 19 4 60 5 90 0 99 -13 151 16 167 92 7 39 19 38 27 -1 3 -17 19 -43 34
-59 34 -34 102 -45 202 -33 l65 8 3 37 3 37 -88 -6 c-105 -7 -116 0 -111 74
l3 48 93 3 92 3 -1 62 c-1 126 -37 169 -142 170 -35 0 -78 -5 -95 -12 -30 -13
-62 -62 -62 -95 0 -30 -17 -16 -29 24 -15 52 -53 76 -136 85 l-63 6 -8 102 -9
102 -40 3 c-23 2 -44 0 -48 -4z m188 -308 c12 -19 15 -48 13 -142 l-3 -119
-45 0 -45 0 -3 129 c-1 72 0 136 2 143 9 23 64 16 81 -11z m337 -16 c11 -50 4
-60 -42 -60 -40 0 -40 0 -40 38 0 45 16 64 50 60 19 -2 26 -11 32 -38z"/>
<path d="M2380 886 l0 -324 45 -6 c25 -4 50 -4 56 0 13 8 7 604 -6 637 -5 12
-19 17 -51 17 l-44 0 0 -324z"/>
<path d="M2520 886 l0 -324 35 -6 c20 -4 45 -4 57 0 21 6 21 8 15 288 -4 154
-10 300 -13 324 l-7 42 -43 0 -44 0 0 -324z"/>
<path d="M1143 994 c-10 -4 -13 -58 -13 -219 l0 -213 40 -7 c21 -4 44 -4 50 0
6 4 10 65 10 160 0 154 0 155 25 171 18 12 36 15 69 10 43 -7 44 -6 55 26 l12
33 14 -32 13 -31 52 15 c46 13 53 13 75 -1 19 -12 25 -25 25 -51 0 -33 -1 -34
-56 -46 -31 -7 -71 -22 -88 -34 -29 -20 -31 -25 -34 -92 -3 -63 0 -74 21 -99
21 -24 32 -28 75 -28 36 0 57 6 72 19 20 18 21 18 41 -4 14 -15 30 -21 47 -19
l27 3 3 160 c3 185 -8 234 -60 261 -41 21 -154 22 -194 1 -25 -13 -32 -13 -49
-1 -27 20 -74 17 -112 -6 -32 -19 -33 -19 -46 0 -14 20 -54 32 -74 24z m427
-277 c0 -81 -58 -116 -88 -53 -17 33 -4 67 32 84 44 22 56 15 56 -31z"/>
<path d="M2763 991 c-48 -8 -68 -22 -91 -65 -23 -44 -23 -246 0 -298 27 -61
90 -83 210 -72 68 6 81 10 87 27 5 12 6 29 4 38 -4 16 -15 17 -93 12 -83 -5
-88 -5 -99 16 -7 12 -11 41 -9 64 l3 42 95 5 95 5 -3 64 c-4 76 -22 124 -54
144 -29 19 -91 26 -145 18z m91 -102 c13 -64 10 -69 -39 -69 l-45 0 0 38 c0
45 14 62 51 62 22 0 28 -6 33 -31z"/>
</g>
</svg>
